<?xml version="1.0" encoding="UTF-8" standalone="no" ?>
<!DOCTYPE svg PUBLIC "-//W3C//DTD SVG 1.1//EN" "http://www.w3.org/Graphics/SVG/1.1/DTD/svg11.dtd">
<svg xmlns="http://www.w3.org/2000/svg" xmlns:xlink="http://www.w3.org/1999/xlink" version="1.1" width="1080" height="1080" viewBox="0 0 1080 1080" xml:space="preserve">
<desc>Created with Fabric.js 5.2.4</desc>
<defs>
</defs>
<g transform="matrix(1 0 0 1 540 540)" id="e6ab9463-d414-45a4-9b24-212a7c24b327"  >
<rect style="stroke: none; stroke-width: 1; stroke-dasharray: none; stroke-linecap: butt; stroke-dashoffset: 0; stroke-linejoin: miter; stroke-miterlimit: 4; fill: rgb(255,255,255); fill-rule: nonzero; opacity: 1; visibility: hidden;" vector-effect="non-scaling-stroke"  x="-540" y="-540" rx="0" ry="0" width="1080" height="1080" />
</g>
<g transform="matrix(1 0 0 1 540 540)" id="d9f5ee40-e592-4463-ae04-0eaa075fefc3"  >
</g>
<g transform="matrix(1 0 0 1 540 540)"  >
<g style="" vector-effect="non-scaling-stroke"   >
		<g transform="matrix(3.82 0 0 3.82 0 0)"  >
<path style="stroke: none; stroke-width: 1; stroke-dasharray: none; stroke-linecap: butt; stroke-dashoffset: 0; stroke-linejoin: miter; stroke-miterlimit: 4; fill: rgb(244,172,28); fill-rule: nonzero; opacity: 1;" vector-effect="non-scaling-stroke"  transform=" translate(-104.64, -104.64)" d="M 207.17 99.424 L 186.487 78.04700000000001 L 190.655 48.59200000000001 C 191.222 44.58600000000001 188.51 40.853000000000016 184.524 40.15400000000001 L 155.226 35.01700000000001 L 141.285 8.739 C 139.389 5.164000000000001 134.998 3.7410000000000005 131.36599999999999 5.516000000000001 L 104.64 18.582 L 77.916 5.517 C 74.28 3.74 69.893 5.166 67.996 8.74 L 54.055 35.018 L 24.757 40.155 C 20.772000000000002 40.853 18.059 44.587 18.626 48.593 L 22.793 78.048 L 2.11 99.424 C -0.7030000000000003 102.331 -0.7030000000000003 106.94600000000001 2.11 109.85400000000001 L 22.791999999999998 131.23200000000003 L 18.625 160.68800000000002 C 18.059 164.693 20.771 168.42600000000002 24.755 169.126 L 54.054 174.266 L 67.99600000000001 200.541 C 69.89200000000001 204.115 74.28000000000002 205.541 77.915 203.764 L 104.63900000000001 190.702 L 131.366 203.764 C 132.425 204.282 133.54700000000003 204.52700000000002 134.65400000000002 204.52700000000002 C 137.34500000000003 204.52700000000002 139.94000000000003 203.073 141.28400000000002 200.54100000000003 L 155.22600000000003 174.26600000000002 L 184.52500000000003 169.12600000000003 C 188.50900000000004 168.42700000000002 191.22200000000004 164.69300000000004 190.65500000000003 160.68800000000005 L 186.48700000000002 131.23200000000006 L 207.17100000000002 109.85400000000006 C 209.984 106.946 209.984 102.332 207.17 99.424 z M 173.158 123.438 C 171.54999999999998 125.10000000000001 170.79899999999998 127.413 171.123 129.704 L 174.78799999999998 155.606 L 149.02399999999997 160.126 C 146.74599999999998 160.526 144.77899999999997 161.955 143.69499999999996 163.998 L 131.43499999999997 187.10299999999998 L 107.93299999999998 175.617 C 106.89399999999998 175.10899999999998 105.76699999999998 174.855 104.63899999999998 174.855 C 103.51199999999999 174.855 102.38499999999998 175.10899999999998 101.34599999999998 175.617 L 77.84599999999998 187.10299999999998 L 65.58599999999997 163.998 C 64.50199999999997 161.95499999999998 62.53499999999997 160.52599999999998 60.25699999999997 160.12599999999998 L 34.49299999999997 155.60599999999997 L 38.15699999999997 129.70399999999995 C 38.480999999999966 127.41399999999994 37.72999999999997 125.10099999999996 36.12099999999997 123.43899999999995 L 17.934999999999967 104.63999999999996 L 36.12099999999997 85.84299999999996 C 37.728999999999964 84.18099999999995 38.480999999999966 81.86799999999997 38.15699999999997 79.57799999999996 L 34.49299999999997 53.676999999999964 L 60.25599999999997 49.15999999999996 C 62.53499999999997 48.76099999999996 64.50199999999997 47.33099999999996 65.58699999999997 45.28799999999996 L 77.84599999999998 22.17999999999996 L 101.34499999999997 33.66899999999996 C 103.42299999999997 34.685999999999964 105.85299999999997 34.685999999999964 107.93299999999996 33.66899999999996 L 131.43399999999997 22.17999999999996 L 143.69399999999996 45.28799999999996 C 144.77799999999996 47.33099999999996 146.74499999999995 48.76099999999996 149.02399999999997 49.15999999999996 L 174.78699999999998 53.676999999999964 L 171.12199999999999 79.57799999999996 C 170.79799999999997 81.86899999999996 171.54899999999998 84.18099999999995 173.158 85.84399999999997 L 191.344 104.63999999999996 L 173.158 123.438 z" stroke-linecap="round" />
</g>
		<g transform="matrix(3.82 0 0 3.82 -91.06 -91.06)"  >
<path style="stroke: none; stroke-width: 1; stroke-dasharray: none; stroke-linecap: butt; stroke-dashoffset: 0; stroke-linejoin: miter; stroke-miterlimit: 4; fill: rgb(244,172,28); fill-rule: nonzero; opacity: 1;" vector-effect="non-scaling-stroke"  transform=" translate(-80.82, -80.82)" d="M 80.819 98.979 C 90.833 98.979 98.979 90.833 98.979 80.821 C 98.979 70.80499999999999 90.833 62.657 80.819 62.657 C 70.804 62.657 62.657000000000004 70.80499999999999 62.657000000000004 80.821 C 62.657 90.834 70.805 98.979 80.819 98.979 z M 80.819 74.657 C 84.21600000000001 74.657 86.979 77.422 86.979 80.821 C 86.979 84.217 84.215 86.979 80.819 86.979 C 77.421 86.979 74.657 84.216 74.657 80.821 C 74.657 77.422 77.421 74.657 80.819 74.657 z" stroke-linecap="round" />
</g>
		<g transform="matrix(3.82 0 0 3.82 0 0)"  >
<path style="stroke: none; stroke-width: 1; stroke-dasharray: none; stroke-linecap: butt; stroke-dashoffset: 0; stroke-linejoin: miter; stroke-miterlimit: 4; fill: rgb(244,172,28); fill-rule: nonzero; opacity: 1;" vector-effect="non-scaling-stroke"  transform=" translate(-104.64, -104.64)" d="M 140.867 68.414 C 138.52499999999998 66.071 134.724 66.07000000000001 132.38299999999998 68.414 L 68.41499999999998 132.381 C 66.07199999999997 134.724 66.07199999999997 138.523 68.41499999999998 140.86599999999999 C 69.58699999999997 142.03799999999998 71.12199999999997 142.623 72.65799999999997 142.623 C 74.19299999999997 142.623 75.72899999999997 142.03699999999998 76.90099999999997 140.86599999999999 L 140.86799999999997 76.89899999999999 C 143.21 74.556 143.21 70.757 140.867 68.414 z" stroke-linecap="round" />
</g>
		<g transform="matrix(3.82 0 0 3.82 91.06 91.06)"  >
<path style="stroke: none; stroke-width: 1; stroke-dasharray: none; stroke-linecap: butt; stroke-dashoffset: 0; stroke-linejoin: miter; stroke-miterlimit: 4; fill: rgb(244,172,28); fill-rule: nonzero; opacity: 1;" vector-effect="non-scaling-stroke"  transform=" translate(-128.46, -128.46)" d="M 128.46 110.301 C 118.447 110.301 110.302 118.447 110.302 128.459 C 110.302 138.475 118.44800000000001 146.623 128.46 146.623 C 138.476 146.623 146.62400000000002 138.475 146.62400000000002 128.459 C 146.624 118.447 138.476 110.301 128.46 110.301 z M 128.46 134.624 C 125.06500000000001 134.624 122.302 131.859 122.302 128.46 C 122.302 125.06500000000001 125.06500000000001 122.302 128.46 122.302 C 131.858 122.302 134.624 125.06500000000001 134.624 128.46 C 134.624 131.858 131.859 134.624 128.46 134.624 z" stroke-linecap="round" />
</g>
</g>
</g>
<g transform="matrix(NaN NaN NaN NaN 0 0)"  >
<g style=""   >
</g>
</g>
<g transform="matrix(NaN NaN NaN NaN 0 0)"  >
<g style=""   >
</g>
</g>
</svg>