<?xml version="1.0" encoding="UTF-8" standalone="no"?>
<!DOCTYPE svg PUBLIC "-//W3C//DTD SVG 1.1//EN" "http://www.w3.org/Graphics/SVG/1.1/DTD/svg11.dtd">
<svg xmlns="http://www.w3.org/2000/svg" version="1.1" viewBox="0.00 0.00 642.00 641.00">
<g stroke-width="2.00" fill="none" stroke-linecap="butt">
<path stroke="#8b6c27" vector-effect="non-scaling-stroke" d="
  M 294.70 345.52
  Q 294.70 346.24 294.01 346.04
  Q 283.30 342.94 274.60 336.82
  Q 274.19 336.52 274.19 336.02
  Q 274.30 301.32 274.14 266.10
  Q 274.10 256.76 275.63 250.72
  Q 279.64 234.98 293.36 224.65
  Q 302.88 217.50 316.08 215.95
  C 331.24 214.16 346.38 220.35 356.18 231.68
  C 368.41 245.83 371.47 266.44 362.69 283.42
  Q 351.89 304.32 327.94 308.96
  A 0.47 0.47 0.0 0 0 327.69 309.75
  L 374.21 356.10
  Q 374.73 356.62 375.35 356.24
  Q 399.84 341.56 413.59 318.63
  Q 424.14 301.05 427.67 281.42
  C 429.28 272.51 429.27 262.34 428.64 253.24
  Q 427.58 237.77 421.71 223.08
  Q 407.94 188.60 376.08 169.26
  Q 362.57 161.05 344.03 156.51
  Q 338.06 155.05 331.16 154.69
  Q 324.21 154.33 317.74 154.34
  C 286.10 154.43 256.16 170.08 236.39 194.46
  Q 220.38 214.20 214.78 239.42
  Q 213.13 246.86 213.00 256.49
  Q 212.84 268.54 213.37 273.54
  Q 216.74 305.53 236.02 329.75
  Q 258.69 358.24 295.09 367.73
  C 300.96 369.26 307.51 370.24 313.46 370.41
  C 320.90 370.62 328.96 370.89 336.23 369.92
  Q 345.08 368.75 353.48 366.04
  A 0.67 0.67 0.0 0 0 353.75 364.94
  L 338.73 349.57
  A 2.31 2.31 0.0 0 0 336.68 348.91
  Q 326.11 350.78 315.62 350.18
  A 0.39 0.39 0.0 0 1 315.25 349.79
  L 315.22 288.99
  Q 315.22 288.36 315.84 288.42
  Q 318.74 288.71 321.63 288.80
  C 326.94 288.96 331.40 287.05 335.67 284.10
  C 354.40 271.19 349.07 244.01 328.50 237.39
  C 314.85 232.99 300.32 241.07 295.99 253.99
  Q 294.67 257.91 294.69 263.80
  Q 294.84 307.12 294.70 345.52"
/>
<path stroke="#8d6c23" vector-effect="non-scaling-stroke" d="
  M 213.23 416.43
  A 0.74 0.74 0.0 0 1 212.49 415.69
  L 212.55 407.71
  A 0.74 0.74 0.0 0 1 213.29 406.97
  L 227.87 407.05
  A 0.74 0.74 0.0 0 0 228.62 406.32
  L 228.82 398.22
  A 0.74 0.74 0.0 0 0 228.08 397.46
  L 202.30 397.44
  A 0.74 0.74 0.0 0 0 201.56 398.18
  L 201.55 444.27
  A 0.74 0.74 0.0 0 0 202.29 445.01
  L 228.05 445.01
  A 0.74 0.74 0.0 0 0 228.79 444.26
  L 228.73 436.21
  A 0.74 0.74 0.0 0 0 227.98 435.47
  L 213.26 435.50
  A 0.74 0.74 0.0 0 1 212.51 434.76
  L 212.46 426.72
  A 0.74 0.74 0.0 0 1 213.19 425.98
  L 227.39 425.97
  A 0.74 0.74 0.0 0 0 228.13 425.23
  L 228.11 417.24
  A 0.74 0.74 0.0 0 0 227.37 416.50
  L 213.23 416.43"
/>
<path stroke="#8d6c23" vector-effect="non-scaling-stroke" d="
  M 180.24 425.08
  C 188.34 421.81 191.16 413.15 187.99 405.54
  C 185.23 398.92 178.40 397.31 171.26 397.42
  Q 164.24 397.52 157.36 397.45
  A 0.76 0.76 0.0 0 0 156.59 398.21
  L 156.65 444.19
  Q 156.65 444.97 157.44 444.98
  L 166.82 445.03
  Q 167.51 445.03 167.53 444.33
  Q 167.68 435.72 167.37 428.31
  Q 167.28 425.92 168.74 427.81
  L 181.51 444.36
  A 1.71 1.70 -18.7 0 0 182.86 445.02
  L 194.72 444.99
  A 0.51 0.51 0.0 0 0 195.11 444.16
  L 180.02 425.94
  A 0.55 0.55 0.0 0 1 180.24 425.08"
/>
<path stroke="#8d6c23" vector-effect="non-scaling-stroke" d="
  M 249.37 445.04
  A 0.33 0.33 0.0 0 0 249.70 444.71
  L 249.67 416.57
  A 0.33 0.33 0.0 0 1 250.28 416.39
  L 268.53 444.79
  A 0.33 0.33 0.0 0 0 268.81 444.94
  L 279.20 445.03
  A 0.33 0.33 0.0 0 0 279.53 444.70
  L 279.50 397.87
  A 0.33 0.33 0.0 0 0 279.17 397.54
  L 268.92 397.50
  A 0.33 0.33 0.0 0 0 268.59 397.83
  L 268.65 426.00
  A 0.33 0.33 0.0 0 1 268.04 426.18
  L 249.88 397.66
  A 0.33 0.33 0.0 0 0 249.60 397.51
  L 239.14 397.48
  A 0.33 0.33 0.0 0 0 238.81 397.81
  L 238.81 444.60
  A 0.33 0.33 0.0 0 0 239.14 444.93
  L 249.37 445.04"
/>
<path stroke="#8d6c23" vector-effect="non-scaling-stroke" d="
  M 309.00 407.53
  A 0.60 0.60 0.0 0 1 309.60 406.93
  L 319.60 407.01
  A 0.60 0.60 0.0 0 0 320.21 406.41
  L 320.27 398.11
  A 0.60 0.60 0.0 0 0 319.68 397.51
  L 287.33 397.48
  A 0.60 0.60 0.0 0 0 286.73 398.08
  L 286.78 406.33
  A 0.60 0.60 0.0 0 0 287.37 406.93
  L 297.45 407.01
  A 0.60 0.60 0.0 0 1 298.04 407.61
  L 298.07 444.38
  A 0.60 0.60 0.0 0 0 298.67 444.98
  L 308.41 444.99
  A 0.60 0.60 0.0 0 0 309.01 444.39
  L 309.00 407.53"
/>
<path stroke="#8d6c23" vector-effect="non-scaling-stroke" d="
  M 338.81 407.66
  A 0.66 0.66 0.0 0 1 339.47 407.00
  L 354.53 407.05
  A 0.66 0.66 0.0 0 0 355.19 406.39
  L 355.19 398.13
  A 0.66 0.66 0.0 0 0 354.53 397.47
  L 328.61 397.50
  A 0.66 0.66 0.0 0 0 327.95 398.16
  L 327.95 444.34
  A 0.66 0.66 0.0 0 0 328.61 445.00
  L 354.56 444.98
  A 0.66 0.66 0.0 0 0 355.22 444.32
  L 355.15 436.13
  A 0.66 0.66 0.0 0 0 354.49 435.47
  L 339.53 435.51
  A 0.66 0.66 0.0 0 1 338.87 434.85
  L 338.84 426.55
  A 0.66 0.66 0.0 0 1 339.51 425.89
  L 353.70 426.02
  A 0.66 0.66 0.0 0 0 354.37 425.37
  L 354.50 417.13
  A 0.66 0.66 0.0 0 0 353.84 416.46
  L 339.47 416.55
  A 0.66 0.66 0.0 0 1 338.81 415.89
  L 338.81 407.66"
/>
<path stroke="#8d6c23" vector-effect="non-scaling-stroke" d="
  M 375.44 445.00
  A 0.34 0.34 0.0 0 0 375.78 444.66
  L 375.67 425.70
  A 0.34 0.34 0.0 0 1 376.27 425.47
  L 393.10 444.88
  A 0.34 0.34 0.0 0 0 393.36 445.00
  L 407.36 444.97
  A 0.34 0.34 0.0 0 0 407.61 444.41
  L 386.27 420.23
  A 0.34 0.34 0.0 0 1 386.27 419.79
  L 404.64 398.08
  A 0.34 0.34 0.0 0 0 404.38 397.52
  L 392.21 397.45
  A 0.34 0.34 0.0 0 0 391.95 397.57
  L 376.28 416.12
  A 0.34 0.34 0.0 0 1 375.68 415.90
  L 375.75 397.82
  A 0.34 0.34 0.0 0 0 375.41 397.48
  L 365.14 397.46
  A 0.34 0.34 0.0 0 0 364.80 397.80
  L 364.81 444.62
  A 0.34 0.34 0.0 0 0 365.15 444.96
  L 375.44 445.00"
/>
<path stroke="#8d6c23" vector-effect="non-scaling-stroke" d="
  M 424.77 426.63
  A 0.65 0.65 0.0 0 1 425.42 425.97
  L 439.75 425.99
  A 0.65 0.65 0.0 0 0 440.40 425.34
  L 440.36 417.16
  A 0.65 0.65 0.0 0 0 439.71 416.51
  L 425.47 416.47
  A 0.65 0.65 0.0 0 1 424.82 415.82
  L 424.82 407.61
  A 0.65 0.65 0.0 0 1 425.47 406.96
  L 440.43 407.04
  A 0.65 0.65 0.0 0 0 441.08 406.39
  L 441.10 398.12
  A 0.65 0.65 0.0 0 0 440.45 397.47
  L 414.47 397.47
  A 0.65 0.65 0.0 0 0 413.82 398.12
  L 413.86 444.37
  A 0.65 0.65 0.0 0 0 414.51 445.02
  L 440.49 444.95
  A 0.65 0.65 0.0 0 0 441.14 444.30
  L 441.09 436.20
  A 0.65 0.65 0.0 0 0 440.45 435.56
  L 425.57 435.47
  A 0.65 0.65 0.0 0 1 424.93 434.84
  L 424.77 426.63"
/>
<path stroke="#8d6c23" vector-effect="non-scaling-stroke" d="
  M 461.66 427.75
  Q 461.65 426.19 462.61 427.43
  L 475.24 443.81
  Q 476.16 445.01 477.69 445.01
  L 488.96 444.97
  A 0.46 0.46 0.0 0 0 489.31 444.22
  L 474.18 426.02
  A 0.58 0.57 -31.0 0 1 474.41 425.12
  C 480.50 422.59 483.71 417.33 483.29 410.71
  Q 482.72 401.60 474.60 398.62
  Q 470.91 397.27 463.32 397.42
  Q 457.26 397.55 451.09 397.47
  A 0.32 0.31 -89.1 0 0 450.77 397.79
  L 450.78 444.38
  A 0.60 0.59 0.0 0 0 451.38 444.97
  L 461.12 445.00
  Q 461.74 445.00 461.74 444.38
  L 461.66 427.75"
/>
<path stroke="#8d6c23" vector-effect="non-scaling-stroke" d="
  M 283.5168 465.6956
  A 2.07 1.43 3.2 0 0 281.5298 464.1522
  A 2.07 1.43 3.2 0 0 279.3832 465.4644
  A 2.07 1.43 3.2 0 0 281.3702 467.0078
  A 2.07 1.43 3.2 0 0 283.5168 465.6956"
/>
<path stroke="#8d6c23" vector-effect="non-scaling-stroke" d="
  M 398.9586 465.5355
  A 1.94 1.49 -2.2 0 0 396.9628 464.1211
  A 1.94 1.49 -2.2 0 0 395.0814 465.6845
  A 1.94 1.49 -2.2 0 0 397.0772 467.0989
  A 1.94 1.49 -2.2 0 0 398.9586 465.5355"
/>
<path stroke="#8d6c23" vector-effect="non-scaling-stroke" d="
  M 398.5233 468.5327
  A 0.91 0.91 0.0 0 0 397.6149 467.6211
  L 396.3349 467.6189
  A 0.91 0.91 0.0 0 0 395.4234 468.5273
  L 395.3967 483.8273
  A 0.91 0.91 0.0 0 0 396.3051 484.7389
  L 397.5851 484.7411
  A 0.91 0.91 0.0 0 0 398.4966 483.8327
  L 398.5233 468.5327"
/>
<path stroke="#8d6c23" vector-effect="non-scaling-stroke" d="
  M 206.63 474.30
  Q 206.09 475.50 205.56 474.30
  L 203.29 469.20
  Q 202.75 467.97 201.41 467.96
  L 200.08 467.95
  Q 198.76 467.94 199.38 469.10
  Q 201.98 473.91 203.93 478.18
  Q 204.60 479.66 204.25 483.85
  Q 204.16 484.96 205.27 484.86
  L 206.71 484.73
  Q 207.86 484.62 207.67 483.48
  C 206.77 478.29 210.03 473.41 212.55 469.15
  Q 213.35 467.81 211.79 467.86
  L 211.01 467.88
  Q 209.47 467.93 208.84 469.34
  L 206.63 474.30"
/>
<path stroke="#8d6c23" vector-effect="non-scaling-stroke" d="
  M 254.88 474.40
  Q 257.58 479.08 261.09 483.43
  Q 264.49 487.62 264.48 482.23
  L 264.45 468.67
  Q 264.45 467.89 263.67 467.94
  L 262.19 468.03
  Q 261.22 468.09 261.23 469.06
  L 261.39 477.96
  Q 261.40 478.59 261.06 478.07
  Q 258.10 473.53 254.59 468.78
  Q 253.58 467.43 252.04 468.00
  Q 251.61 468.15 251.61 468.61
  L 251.60 483.91
  Q 251.60 484.99 252.66 484.83
  L 253.82 484.66
  A 1.09 1.09 0.0 0 0 254.75 483.56
  L 254.48 474.52
  Q 254.46 473.66 254.88 474.40"
/>
<path stroke="#8d6c23" vector-effect="non-scaling-stroke" d="
  M 326.61 478.33
  Q 323.75 473.83 320.46 469.31
  Q 319.58 468.10 318.44 467.77
  A 1.10 1.10 0.0 0 0 317.04 468.83
  L 317.02 483.80
  Q 317.02 484.71 317.93 484.77
  Q 318.79 484.82 319.60 484.61
  Q 320.30 484.43 320.28 483.71
  L 319.98 474.80
  Q 319.95 473.95 320.40 474.67
  Q 323.13 478.98 326.34 483.46
  Q 327.41 484.95 329.16 485.11
  A 0.69 0.69 0.0 0 0 329.92 484.42
  L 329.88 469.03
  Q 329.87 467.93 328.78 467.97
  L 327.70 468.00
  Q 326.58 468.04 326.62 469.17
  L 326.93 478.23
  Q 326.95 478.87 326.61 478.33"
/>
<path stroke="#8d6c23" vector-effect="non-scaling-stroke" d="
  M 348.92 474.73
  A 0.61 0.61 0.0 0 1 348.32 474.09
  L 348.42 471.59
  A 0.61 0.61 0.0 0 1 349.00 471.00
  L 354.55 470.76
  A 0.61 0.61 0.0 0 0 355.13 470.14
  L 355.10 468.65
  A 0.61 0.61 0.0 0 0 354.50 468.05
  L 345.89 467.93
  A 0.61 0.61 0.0 0 0 345.27 468.54
  L 345.26 484.17
  A 0.61 0.61 0.0 0 0 345.88 484.78
  L 354.85 484.66
  A 0.61 0.61 0.0 0 0 355.44 483.94
  L 355.13 482.33
  A 0.61 0.61 0.0 0 0 354.53 481.83
  L 348.89 481.91
  A 0.61 0.61 0.0 0 1 348.27 481.27
  L 348.39 478.44
  A 0.61 0.61 0.0 0 1 348.98 477.86
  L 353.95 477.68
  A 0.61 0.61 0.0 0 0 354.54 477.10
  L 354.63 475.42
  A 0.61 0.61 0.0 0 0 354.03 474.77
  L 348.92 474.73"
/>
<path stroke="#8d6c23" vector-effect="non-scaling-stroke" d="
  M 376.52 479.03
  A 1.63 1.62 49.0 0 1 376.33 481.85
  Q 373.75 483.08 371.00 481.77
  Q 369.88 481.23 369.75 482.47
  L 369.68 483.18
  A 1.37 1.36 11.2 0 0 370.66 484.63
  C 373.54 485.45 378.64 485.41 380.03 481.96
  C 382.09 476.85 376.18 475.25 373.13 473.31
  A 1.32 1.32 0.0 0 1 372.85 471.32
  C 374.03 469.98 376.81 470.58 378.24 470.90
  Q 379.51 471.19 379.74 469.90
  L 379.81 469.50
  Q 379.99 468.49 378.99 468.24
  C 375.31 467.34 368.50 467.43 369.79 473.52
  C 370.43 476.57 374.20 477.50 376.52 479.03"
/>
<path stroke="#8d6c23" vector-effect="non-scaling-stroke" d="
  M 229.87 478.35
  A 0.58 0.58 0.0 0 1 230.44 477.79
  L 235.38 477.75
  A 0.58 0.58 0.0 0 0 235.95 477.18
  L 235.97 475.44
  A 0.58 0.58 0.0 0 0 235.40 474.85
  L 230.34 474.69
  A 0.58 0.58 0.0 0 1 229.78 474.10
  L 229.82 471.43
  A 0.58 0.58 0.0 0 1 230.40 470.86
  L 235.88 470.87
  A 0.58 0.58 0.0 0 0 236.46 470.31
  L 236.51 468.64
  A 0.58 0.58 0.0 0 0 235.94 468.04
  L 227.12 467.95
  A 0.58 0.58 0.0 0 0 226.53 468.53
  L 226.52 484.12
  A 0.58 0.58 0.0 0 0 227.10 484.70
  L 236.08 484.65
  A 0.58 0.58 0.0 0 0 236.65 484.08
  L 236.66 482.54
  A 0.58 0.58 0.0 0 0 236.09 481.96
  L 230.37 481.84
  A 0.58 0.58 0.0 0 1 229.80 481.25
  L 229.87 478.35"
/>
<path stroke="#8d6c23" vector-effect="non-scaling-stroke" d="
  M 283.2069 468.8770
  A 0.86 0.86 0.0 0 0 282.3454 468.0185
  L 280.6254 468.0215
  A 0.86 0.86 0.0 0 0 279.7669 468.8830
  L 279.7931 483.8830
  A 0.86 0.86 0.0 0 0 280.6546 484.7415
  L 282.3746 484.7385
  A 0.86 0.86 0.0 0 0 283.2331 483.8770
  L 283.2069 468.8770"
/>
<path stroke="#8d6c23" vector-effect="non-scaling-stroke" d="
  M 418.07 481.99
  A 0.59 0.59 0.0 0 1 417.48 481.41
  L 417.18 468.61
  A 0.59 0.59 0.0 0 0 416.60 468.04
  L 415.08 468.02
  A 0.59 0.59 0.0 0 0 414.49 468.60
  L 414.14 484.11
  A 0.59 0.59 0.0 0 0 414.74 484.71
  L 424.23 484.54
  A 0.59 0.59 0.0 0 0 424.81 483.94
  L 424.77 482.52
  A 0.59 0.59 0.0 0 0 424.18 481.94
  L 418.07 481.99"
/>
<path stroke="#8d6c23" vector-effect="non-scaling-stroke" d="
  M 254.9565 499.0692
  A 2.01 1.40 3.4 0 0 253.0330 497.5525
  A 2.01 1.40 3.4 0 0 250.9435 498.8308
  A 2.01 1.40 3.4 0 0 252.8670 500.3475
  A 2.01 1.40 3.4 0 0 254.9565 499.0692"
/>
<path stroke="#8d6c23" vector-effect="non-scaling-stroke" d="
  M 278.81 510.74
  C 279.79 509.74 280.72 508.79 281.05 507.37
  C 282.55 500.79 275.00 500.48 270.78 501.52
  A 0.75 0.75 0.0 0 0 270.21 502.25
  L 270.13 517.06
  Q 270.12 518.24 271.31 518.14
  L 272.52 518.03
  Q 273.49 517.95 273.49 516.98
  L 273.48 514.08
  Q 273.47 508.75 276.20 513.32
  Q 277.20 514.99 278.10 516.82
  Q 278.70 518.03 280.04 518.03
  L 281.29 518.03
  Q 282.88 518.03 282.01 516.70
  L 278.72 511.71
  Q 278.37 511.19 278.81 510.74"
/>
<path stroke="#8d6c23" vector-effect="non-scaling-stroke" d="
  M 300.57 514.43
  Q 302.55 514.13 304.50 514.55
  A 1.16 1.15 85.8 0 1 305.36 515.30
  L 306.04 517.27
  A 1.39 1.38 -13.4 0 0 307.53 518.18
  L 308.82 518.02
  Q 309.81 517.89 309.47 516.94
  L 304.11 502.02
  Q 303.70 500.87 302.49 501.09
  Q 301.41 501.29 301.02 502.37
  Q 298.39 509.68 295.75 517.12
  Q 295.49 517.86 296.24 518.08
  Q 297.56 518.47 298.64 517.77
  A 0.86 0.84 -15.7 0 0 299.03 517.10
  Q 299.09 515.95 299.73 514.97
  Q 300.03 514.51 300.57 514.43"
/>
<path stroke="#8d6c23" vector-effect="non-scaling-stroke" d="
  M 351.55 514.55
  Q 353.83 513.96 356.03 514.58
  A 1.13 1.12 -0.4 0 1 356.79 515.32
  L 357.44 517.38
  Q 357.70 518.22 358.57 518.15
  L 360.06 518.03
  Q 361.11 517.95 360.76 516.95
  Q 358.26 509.82 355.42 502.24
  Q 354.82 500.64 353.20 501.25
  A 1.27 1.24 -89.8 0 0 352.45 502.01
  L 346.99 517.23
  A 0.75 0.75 0.0 0 0 347.73 518.24
  L 348.82 518.18
  A 1.51 1.50 -82.4 0 0 350.18 517.13
  L 350.75 515.32
  Q 350.94 514.71 351.55 514.55"
/>
<path stroke="#8d6c23" vector-effect="non-scaling-stroke" d="
  M 410.67 514.20
  L 414.03 514.38
  Q 414.69 514.42 414.94 515.04
  L 415.87 517.33
  Q 416.17 518.08 416.98 518.05
  L 418.75 517.99
  Q 419.51 517.97 419.25 517.25
  L 413.80 501.96
  A 1.40 1.40 0.0 0 0 411.44 501.50
  Q 410.66 502.37 410.25 503.58
  Q 407.85 510.61 405.47 517.02
  Q 405.10 518.03 406.17 518.09
  L 407.23 518.15
  A 1.35 1.35 0.0 0 0 408.53 517.36
  L 409.69 514.79
  Q 409.97 514.16 410.67 514.20"
/>
<path stroke="#8d6c23" vector-effect="non-scaling-stroke" d="
  M 227.04 508.00
  Q 226.78 505.19 227.18 502.75
  Q 227.34 501.78 226.37 501.60
  Q 226.36 501.60 224.69 501.29
  Q 223.70 501.11 223.70 502.11
  L 223.58 517.27
  Q 223.57 518.49 224.77 518.26
  L 226.36 517.94
  A 1.05 1.05 0.0 0 0 227.20 516.84
  L 226.95 512.76
  Q 226.76 509.80 228.56 512.16
  Q 230.28 514.40 231.80 516.83
  A 2.53 2.52 74.3 0 0 233.90 518.01
  L 235.50 518.04
  Q 236.84 518.06 236.05 516.98
  L 230.70 509.71
  Q 230.40 509.30 230.69 508.90
  L 235.37 502.44
  Q 236.06 501.49 234.90 501.32
  Q 234.10 501.20 233.28 501.42
  A 3.23 3.20 -80.3 0 0 231.47 502.71
  L 227.72 508.18
  Q 227.13 509.03 227.04 508.00"
/>
<path stroke="#8d6c23" vector-effect="non-scaling-stroke" d="
  M 254.51 502.25
  A 0.99 0.99 0.0 0 0 253.52 501.26
  L 252.36 501.26
  A 0.99 0.99 0.0 0 0 251.37 502.25
  L 251.37 517.15
  A 0.99 0.99 0.0 0 0 252.36 518.14
  L 253.52 518.14
  A 0.99 0.99 0.0 0 0 254.51 517.15
  L 254.51 502.25"
/>
<path stroke="#8d6c23" vector-effect="non-scaling-stroke" d="
  M 327.64 515.36
  A 0.62 0.62 0.0 0 1 327.01 514.74
  L 327.07 501.92
  A 0.62 0.62 0.0 0 0 326.43 501.29
  L 324.36 501.34
  A 0.62 0.62 0.0 0 0 323.75 501.96
  L 323.73 517.54
  A 0.62 0.62 0.0 0 0 324.36 518.16
  L 333.81 518.04
  A 0.62 0.62 0.0 0 0 334.42 517.43
  L 334.44 515.92
  A 0.62 0.62 0.0 0 0 333.81 515.29
  L 327.64 515.36"
/>
<path stroke="#8d6c23" vector-effect="non-scaling-stroke" d="
  M 388.30 507.29
  L 387.89 517.18
  Q 387.85 518.01 388.68 518.05
  L 390.45 518.13
  Q 391.32 518.17 391.32 517.30
  L 391.35 502.22
  Q 391.36 501.69 390.88 501.47
  C 389.80 500.97 388.45 501.19 387.84 502.30
  Q 385.57 506.42 383.58 510.26
  Q 383.21 510.98 382.88 510.24
  Q 380.97 506.00 378.70 502.54
  Q 377.62 500.88 375.55 501.48
  Q 374.99 501.64 375.00 502.21
  L 375.04 517.31
  Q 375.05 518.33 376.07 518.21
  L 377.31 518.06
  Q 378.26 517.94 378.27 516.98
  Q 378.32 512.21 377.89 507.63
  A 0.08 0.08 0.0 0 1 378.03 507.58
  L 382.55 514.86
  A 0.61 0.61 0.0 0 0 383.42 515.04
  Q 384.03 514.62 384.40 513.93
  Q 386.28 510.45 388.04 507.21
  Q 388.32 506.70 388.30 507.29"
/>
<path stroke="#8b6c27" vector-effect="non-scaling-stroke" d="
  M 408.18 252.67
  Q 404.40 223.33 385.19 202.74
  C 372.82 189.49 355.40 179.51 337.09 176.29
  Q 330.02 175.05 323.87 174.60
  Q 315.85 174.00 304.73 176.12
  C 278.69 181.09 256.91 197.11 243.98 220.08
  C 226.67 250.84 230.40 290.72 252.98 317.82
  Q 253.70 318.69 253.71 317.56
  Q 253.76 289.07 253.71 262.22
  C 253.65 224.29 285.65 193.60 323.41 195.09
  C 342.40 195.84 360.81 205.24 372.72 219.65
  C 396.72 248.68 392.42 291.59 362.79 315.13
  A 0.31 0.31 0.0 0 0 362.76 315.58
  L 376.64 329.58
  A 0.79 0.78 46.6 0 0 377.72 329.62
  C 399.62 310.04 411.92 281.75 408.18 252.67"
/>
<path stroke="#8d6c23" vector-effect="non-scaling-stroke" d="
  M 167.56 406.51
  L 167.52 418.11
  A 0.42 0.42 0.0 0 0 167.94 418.53
  L 170.91 418.54
  A 6.81 5.45 0.2 0 0 177.74 413.12
  L 177.74 411.58
  A 6.81 5.45 0.2 0 0 170.95 406.10
  L 167.98 406.09
  A 0.42 0.42 0.0 0 0 167.56 406.51"
/>
<path stroke="#8d6c23" vector-effect="non-scaling-stroke" d="
  M 461.73 406.71
  L 461.73 417.95
  A 0.60 0.60 0.0 0 0 462.33 418.55
  L 465.40 418.55
  A 6.47 5.71 0.0 0 0 471.87 412.84
  L 471.87 411.82
  A 6.47 5.71 -0.0 0 0 465.40 406.11
  L 462.33 406.11
  A 0.60 0.60 0.0 0 0 461.73 406.71"
/>
<path stroke="#8d6c23" vector-effect="non-scaling-stroke" d="
  M 273.54 504.73
  L 273.50 508.27
  A 0.76 0.76 0.0 0 0 274.25 509.04
  L 274.80 509.05
  A 2.91 2.35 0.7 0 0 277.74 506.74
  L 277.74 506.38
  A 2.91 2.35 0.7 0 0 274.86 503.99
  L 274.31 503.98
  A 0.76 0.76 0.0 0 0 273.54 504.73"
/>
<path stroke="#8d6c23" vector-effect="non-scaling-stroke" d="
  M 304.17 511.10
  L 302.59 506.83
  Q 302.35 506.19 302.17 506.85
  L 300.98 511.17
  Q 300.83 511.72 301.40 511.74
  L 303.65 511.82
  Q 304.44 511.84 304.17 511.10"
/>
<path stroke="#8d6c23" vector-effect="non-scaling-stroke" d="
  M 355.26 511.82
  A 0.34 0.34 0.0 0 0 355.58 511.36
  L 353.92 506.70
  A 0.34 0.34 0.0 0 0 353.26 506.75
  L 352.29 511.35
  A 0.34 0.34 0.0 0 0 352.62 511.76
  L 355.26 511.82"
/>
<path stroke="#8d6c23" vector-effect="non-scaling-stroke" d="
  M 412.17 506.97
  L 410.72 510.62
  Q 410.38 511.46 411.25 511.74
  Q 412.47 512.12 413.49 511.61
  Q 413.76 511.48 413.66 511.19
  Q 412.94 509.29 412.69 507.04
  Q 412.57 505.96 412.17 506.97"
/>
</g>
<path fill="#f2ae1e" d="
  M 0.00 0.00
  L 642.00 0.00
  L 642.00 641.00
  L 0.00 641.00
  L 0.00 0.00
  Z
  M 294.70 345.52
  Q 294.70 346.24 294.01 346.04
  Q 283.30 342.94 274.60 336.82
  Q 274.19 336.52 274.19 336.02
  Q 274.30 301.32 274.14 266.10
  Q 274.10 256.76 275.63 250.72
  Q 279.64 234.98 293.36 224.65
  Q 302.88 217.50 316.08 215.95
  C 331.24 214.16 346.38 220.35 356.18 231.68
  C 368.41 245.83 371.47 266.44 362.69 283.42
  Q 351.89 304.32 327.94 308.96
  A 0.47 0.47 0.0 0 0 327.69 309.75
  L 374.21 356.10
  Q 374.73 356.62 375.35 356.24
  Q 399.84 341.56 413.59 318.63
  Q 424.14 301.05 427.67 281.42
  C 429.28 272.51 429.27 262.34 428.64 253.24
  Q 427.58 237.77 421.71 223.08
  Q 407.94 188.60 376.08 169.26
  Q 362.57 161.05 344.03 156.51
  Q 338.06 155.05 331.16 154.69
  Q 324.21 154.33 317.74 154.34
  C 286.10 154.43 256.16 170.08 236.39 194.46
  Q 220.38 214.20 214.78 239.42
  Q 213.13 246.86 213.00 256.49
  Q 212.84 268.54 213.37 273.54
  Q 216.74 305.53 236.02 329.75
  Q 258.69 358.24 295.09 367.73
  C 300.96 369.26 307.51 370.24 313.46 370.41
  C 320.90 370.62 328.96 370.89 336.23 369.92
  Q 345.08 368.75 353.48 366.04
  A 0.67 0.67 0.0 0 0 353.75 364.94
  L 338.73 349.57
  A 2.31 2.31 0.0 0 0 336.68 348.91
  Q 326.11 350.78 315.62 350.18
  A 0.39 0.39 0.0 0 1 315.25 349.79
  L 315.22 288.99
  Q 315.22 288.36 315.84 288.42
  Q 318.74 288.71 321.63 288.80
  C 326.94 288.96 331.40 287.05 335.67 284.10
  C 354.40 271.19 349.07 244.01 328.50 237.39
  C 314.85 232.99 300.32 241.07 295.99 253.99
  Q 294.67 257.91 294.69 263.80
  Q 294.84 307.12 294.70 345.52
  Z
  M 213.23 416.43
  A 0.74 0.74 0.0 0 1 212.49 415.69
  L 212.55 407.71
  A 0.74 0.74 0.0 0 1 213.29 406.97
  L 227.87 407.05
  A 0.74 0.74 0.0 0 0 228.62 406.32
  L 228.82 398.22
  A 0.74 0.74 0.0 0 0 228.08 397.46
  L 202.30 397.44
  A 0.74 0.74 0.0 0 0 201.56 398.18
  L 201.55 444.27
  A 0.74 0.74 0.0 0 0 202.29 445.01
  L 228.05 445.01
  A 0.74 0.74 0.0 0 0 228.79 444.26
  L 228.73 436.21
  A 0.74 0.74 0.0 0 0 227.98 435.47
  L 213.26 435.50
  A 0.74 0.74 0.0 0 1 212.51 434.76
  L 212.46 426.72
  A 0.74 0.74 0.0 0 1 213.19 425.98
  L 227.39 425.97
  A 0.74 0.74 0.0 0 0 228.13 425.23
  L 228.11 417.24
  A 0.74 0.74 0.0 0 0 227.37 416.50
  L 213.23 416.43
  Z
  M 180.24 425.08
  C 188.34 421.81 191.16 413.15 187.99 405.54
  C 185.23 398.92 178.40 397.31 171.26 397.42
  Q 164.24 397.52 157.36 397.45
  A 0.76 0.76 0.0 0 0 156.59 398.21
  L 156.65 444.19
  Q 156.65 444.97 157.44 444.98
  L 166.82 445.03
  Q 167.51 445.03 167.53 444.33
  Q 167.68 435.72 167.37 428.31
  Q 167.28 425.92 168.74 427.81
  L 181.51 444.36
  A 1.71 1.70 -18.7 0 0 182.86 445.02
  L 194.72 444.99
  A 0.51 0.51 0.0 0 0 195.11 444.16
  L 180.02 425.94
  A 0.55 0.55 0.0 0 1 180.24 425.08
  Z
  M 249.37 445.04
  A 0.33 0.33 0.0 0 0 249.70 444.71
  L 249.67 416.57
  A 0.33 0.33 0.0 0 1 250.28 416.39
  L 268.53 444.79
  A 0.33 0.33 0.0 0 0 268.81 444.94
  L 279.20 445.03
  A 0.33 0.33 0.0 0 0 279.53 444.70
  L 279.50 397.87
  A 0.33 0.33 0.0 0 0 279.17 397.54
  L 268.92 397.50
  A 0.33 0.33 0.0 0 0 268.59 397.83
  L 268.65 426.00
  A 0.33 0.33 0.0 0 1 268.04 426.18
  L 249.88 397.66
  A 0.33 0.33 0.0 0 0 249.60 397.51
  L 239.14 397.48
  A 0.33 0.33 0.0 0 0 238.81 397.81
  L 238.81 444.60
  A 0.33 0.33 0.0 0 0 239.14 444.93
  L 249.37 445.04
  Z
  M 309.00 407.53
  A 0.60 0.60 0.0 0 1 309.60 406.93
  L 319.60 407.01
  A 0.60 0.60 0.0 0 0 320.21 406.41
  L 320.27 398.11
  A 0.60 0.60 0.0 0 0 319.68 397.51
  L 287.33 397.48
  A 0.60 0.60 0.0 0 0 286.73 398.08
  L 286.78 406.33
  A 0.60 0.60 0.0 0 0 287.37 406.93
  L 297.45 407.01
  A 0.60 0.60 0.0 0 1 298.04 407.61
  L 298.07 444.38
  A 0.60 0.60 0.0 0 0 298.67 444.98
  L 308.41 444.99
  A 0.60 0.60 0.0 0 0 309.01 444.39
  L 309.00 407.53
  Z
  M 338.81 407.66
  A 0.66 0.66 0.0 0 1 339.47 407.00
  L 354.53 407.05
  A 0.66 0.66 0.0 0 0 355.19 406.39
  L 355.19 398.13
  A 0.66 0.66 0.0 0 0 354.53 397.47
  L 328.61 397.50
  A 0.66 0.66 0.0 0 0 327.95 398.16
  L 327.95 444.34
  A 0.66 0.66 0.0 0 0 328.61 445.00
  L 354.56 444.98
  A 0.66 0.66 0.0 0 0 355.22 444.32
  L 355.15 436.13
  A 0.66 0.66 0.0 0 0 354.49 435.47
  L 339.53 435.51
  A 0.66 0.66 0.0 0 1 338.87 434.85
  L 338.84 426.55
  A 0.66 0.66 0.0 0 1 339.51 425.89
  L 353.70 426.02
  A 0.66 0.66 0.0 0 0 354.37 425.37
  L 354.50 417.13
  A 0.66 0.66 0.0 0 0 353.84 416.46
  L 339.47 416.55
  A 0.66 0.66 0.0 0 1 338.81 415.89
  L 338.81 407.66
  Z
  M 375.44 445.00
  A 0.34 0.34 0.0 0 0 375.78 444.66
  L 375.67 425.70
  A 0.34 0.34 0.0 0 1 376.27 425.47
  L 393.10 444.88
  A 0.34 0.34 0.0 0 0 393.36 445.00
  L 407.36 444.97
  A 0.34 0.34 0.0 0 0 407.61 444.41
  L 386.27 420.23
  A 0.34 0.34 0.0 0 1 386.27 419.79
  L 404.64 398.08
  A 0.34 0.34 0.0 0 0 404.38 397.52
  L 392.21 397.45
  A 0.34 0.34 0.0 0 0 391.95 397.57
  L 376.28 416.12
  A 0.34 0.34 0.0 0 1 375.68 415.90
  L 375.75 397.82
  A 0.34 0.34 0.0 0 0 375.41 397.48
  L 365.14 397.46
  A 0.34 0.34 0.0 0 0 364.80 397.80
  L 364.81 444.62
  A 0.34 0.34 0.0 0 0 365.15 444.96
  L 375.44 445.00
  Z
  M 424.77 426.63
  A 0.65 0.65 0.0 0 1 425.42 425.97
  L 439.75 425.99
  A 0.65 0.65 0.0 0 0 440.40 425.34
  L 440.36 417.16
  A 0.65 0.65 0.0 0 0 439.71 416.51
  L 425.47 416.47
  A 0.65 0.65 0.0 0 1 424.82 415.82
  L 424.82 407.61
  A 0.65 0.65 0.0 0 1 425.47 406.96
  L 440.43 407.04
  A 0.65 0.65 0.0 0 0 441.08 406.39
  L 441.10 398.12
  A 0.65 0.65 0.0 0 0 440.45 397.47
  L 414.47 397.47
  A 0.65 0.65 0.0 0 0 413.82 398.12
  L 413.86 444.37
  A 0.65 0.65 0.0 0 0 414.51 445.02
  L 440.49 444.95
  A 0.65 0.65 0.0 0 0 441.14 444.30
  L 441.09 436.20
  A 0.65 0.65 0.0 0 0 440.45 435.56
  L 425.57 435.47
  A 0.65 0.65 0.0 0 1 424.93 434.84
  L 424.77 426.63
  Z
  M 461.66 427.75
  Q 461.65 426.19 462.61 427.43
  L 475.24 443.81
  Q 476.16 445.01 477.69 445.01
  L 488.96 444.97
  A 0.46 0.46 0.0 0 0 489.31 444.22
  L 474.18 426.02
  A 0.58 0.57 -31.0 0 1 474.41 425.12
  C 480.50 422.59 483.71 417.33 483.29 410.71
  Q 482.72 401.60 474.60 398.62
  Q 470.91 397.27 463.32 397.42
  Q 457.26 397.55 451.09 397.47
  A 0.32 0.31 -89.1 0 0 450.77 397.79
  L 450.78 444.38
  A 0.60 0.59 0.0 0 0 451.38 444.97
  L 461.12 445.00
  Q 461.74 445.00 461.74 444.38
  L 461.66 427.75
  Z
  M 283.5168 465.6956
  A 2.07 1.43 3.2 0 0 281.5298 464.1522
  A 2.07 1.43 3.2 0 0 279.3832 465.4644
  A 2.07 1.43 3.2 0 0 281.3702 467.0078
  A 2.07 1.43 3.2 0 0 283.5168 465.6956
  Z
  M 398.9586 465.5355
  A 1.94 1.49 -2.2 0 0 396.9628 464.1211
  A 1.94 1.49 -2.2 0 0 395.0814 465.6845
  A 1.94 1.49 -2.2 0 0 397.0772 467.0989
  A 1.94 1.49 -2.2 0 0 398.9586 465.5355
  Z
  M 398.5233 468.5327
  A 0.91 0.91 0.0 0 0 397.6149 467.6211
  L 396.3349 467.6189
  A 0.91 0.91 0.0 0 0 395.4234 468.5273
  L 395.3967 483.8273
  A 0.91 0.91 0.0 0 0 396.3051 484.7389
  L 397.5851 484.7411
  A 0.91 0.91 0.0 0 0 398.4966 483.8327
  L 398.5233 468.5327
  Z
  M 206.63 474.30
  Q 206.09 475.50 205.56 474.30
  L 203.29 469.20
  Q 202.75 467.97 201.41 467.96
  L 200.08 467.95
  Q 198.76 467.94 199.38 469.10
  Q 201.98 473.91 203.93 478.18
  Q 204.60 479.66 204.25 483.85
  Q 204.16 484.96 205.27 484.86
  L 206.71 484.73
  Q 207.86 484.62 207.67 483.48
  C 206.77 478.29 210.03 473.41 212.55 469.15
  Q 213.35 467.81 211.79 467.86
  L 211.01 467.88
  Q 209.47 467.93 208.84 469.34
  L 206.63 474.30
  Z
  M 254.88 474.40
  Q 257.58 479.08 261.09 483.43
  Q 264.49 487.62 264.48 482.23
  L 264.45 468.67
  Q 264.45 467.89 263.67 467.94
  L 262.19 468.03
  Q 261.22 468.09 261.23 469.06
  L 261.39 477.96
  Q 261.40 478.59 261.06 478.07
  Q 258.10 473.53 254.59 468.78
  Q 253.58 467.43 252.04 468.00
  Q 251.61 468.15 251.61 468.61
  L 251.60 483.91
  Q 251.60 484.99 252.66 484.83
  L 253.82 484.66
  A 1.09 1.09 0.0 0 0 254.75 483.56
  L 254.48 474.52
  Q 254.46 473.66 254.88 474.40
  Z
  M 326.61 478.33
  Q 323.75 473.83 320.46 469.31
  Q 319.58 468.10 318.44 467.77
  A 1.10 1.10 0.0 0 0 317.04 468.83
  L 317.02 483.80
  Q 317.02 484.71 317.93 484.77
  Q 318.79 484.82 319.60 484.61
  Q 320.30 484.43 320.28 483.71
  L 319.98 474.80
  Q 319.95 473.95 320.40 474.67
  Q 323.13 478.98 326.34 483.46
  Q 327.41 484.95 329.16 485.11
  A 0.69 0.69 0.0 0 0 329.92 484.42
  L 329.88 469.03
  Q 329.87 467.93 328.78 467.97
  L 327.70 468.00
  Q 326.58 468.04 326.62 469.17
  L 326.93 478.23
  Q 326.95 478.87 326.61 478.33
  Z
  M 348.92 474.73
  A 0.61 0.61 0.0 0 1 348.32 474.09
  L 348.42 471.59
  A 0.61 0.61 0.0 0 1 349.00 471.00
  L 354.55 470.76
  A 0.61 0.61 0.0 0 0 355.13 470.14
  L 355.10 468.65
  A 0.61 0.61 0.0 0 0 354.50 468.05
  L 345.89 467.93
  A 0.61 0.61 0.0 0 0 345.27 468.54
  L 345.26 484.17
  A 0.61 0.61 0.0 0 0 345.88 484.78
  L 354.85 484.66
  A 0.61 0.61 0.0 0 0 355.44 483.94
  L 355.13 482.33
  A 0.61 0.61 0.0 0 0 354.53 481.83
  L 348.89 481.91
  A 0.61 0.61 0.0 0 1 348.27 481.27
  L 348.39 478.44
  A 0.61 0.61 0.0 0 1 348.98 477.86
  L 353.95 477.68
  A 0.61 0.61 0.0 0 0 354.54 477.10
  L 354.63 475.42
  A 0.61 0.61 0.0 0 0 354.03 474.77
  L 348.92 474.73
  Z
  M 376.52 479.03
  A 1.63 1.62 49.0 0 1 376.33 481.85
  Q 373.75 483.08 371.00 481.77
  Q 369.88 481.23 369.75 482.47
  L 369.68 483.18
  A 1.37 1.36 11.2 0 0 370.66 484.63
  C 373.54 485.45 378.64 485.41 380.03 481.96
  C 382.09 476.85 376.18 475.25 373.13 473.31
  A 1.32 1.32 0.0 0 1 372.85 471.32
  C 374.03 469.98 376.81 470.58 378.24 470.90
  Q 379.51 471.19 379.74 469.90
  L 379.81 469.50
  Q 379.99 468.49 378.99 468.24
  C 375.31 467.34 368.50 467.43 369.79 473.52
  C 370.43 476.57 374.20 477.50 376.52 479.03
  Z
  M 229.87 478.35
  A 0.58 0.58 0.0 0 1 230.44 477.79
  L 235.38 477.75
  A 0.58 0.58 0.0 0 0 235.95 477.18
  L 235.97 475.44
  A 0.58 0.58 0.0 0 0 235.40 474.85
  L 230.34 474.69
  A 0.58 0.58 0.0 0 1 229.78 474.10
  L 229.82 471.43
  A 0.58 0.58 0.0 0 1 230.40 470.86
  L 235.88 470.87
  A 0.58 0.58 0.0 0 0 236.46 470.31
  L 236.51 468.64
  A 0.58 0.58 0.0 0 0 235.94 468.04
  L 227.12 467.95
  A 0.58 0.58 0.0 0 0 226.53 468.53
  L 226.52 484.12
  A 0.58 0.58 0.0 0 0 227.10 484.70
  L 236.08 484.65
  A 0.58 0.58 0.0 0 0 236.65 484.08
  L 236.66 482.54
  A 0.58 0.58 0.0 0 0 236.09 481.96
  L 230.37 481.84
  A 0.58 0.58 0.0 0 1 229.80 481.25
  L 229.87 478.35
  Z
  M 283.2069 468.8770
  A 0.86 0.86 0.0 0 0 282.3454 468.0185
  L 280.6254 468.0215
  A 0.86 0.86 0.0 0 0 279.7669 468.8830
  L 279.7931 483.8830
  A 0.86 0.86 0.0 0 0 280.6546 484.7415
  L 282.3746 484.7385
  A 0.86 0.86 0.0 0 0 283.2331 483.8770
  L 283.2069 468.8770
  Z
  M 418.07 481.99
  A 0.59 0.59 0.0 0 1 417.48 481.41
  L 417.18 468.61
  A 0.59 0.59 0.0 0 0 416.60 468.04
  L 415.08 468.02
  A 0.59 0.59 0.0 0 0 414.49 468.60
  L 414.14 484.11
  A 0.59 0.59 0.0 0 0 414.74 484.71
  L 424.23 484.54
  A 0.59 0.59 0.0 0 0 424.81 483.94
  L 424.77 482.52
  A 0.59 0.59 0.0 0 0 424.18 481.94
  L 418.07 481.99
  Z
  M 254.9565 499.0692
  A 2.01 1.40 3.4 0 0 253.0330 497.5525
  A 2.01 1.40 3.4 0 0 250.9435 498.8308
  A 2.01 1.40 3.4 0 0 252.8670 500.3475
  A 2.01 1.40 3.4 0 0 254.9565 499.0692
  Z
  M 278.81 510.74
  C 279.79 509.74 280.72 508.79 281.05 507.37
  C 282.55 500.79 275.00 500.48 270.78 501.52
  A 0.75 0.75 0.0 0 0 270.21 502.25
  L 270.13 517.06
  Q 270.12 518.24 271.31 518.14
  L 272.52 518.03
  Q 273.49 517.95 273.49 516.98
  L 273.48 514.08
  Q 273.47 508.75 276.20 513.32
  Q 277.20 514.99 278.10 516.82
  Q 278.70 518.03 280.04 518.03
  L 281.29 518.03
  Q 282.88 518.03 282.01 516.70
  L 278.72 511.71
  Q 278.37 511.19 278.81 510.74
  Z
  M 300.57 514.43
  Q 302.55 514.13 304.50 514.55
  A 1.16 1.15 85.8 0 1 305.36 515.30
  L 306.04 517.27
  A 1.39 1.38 -13.4 0 0 307.53 518.18
  L 308.82 518.02
  Q 309.81 517.89 309.47 516.94
  L 304.11 502.02
  Q 303.70 500.87 302.49 501.09
  Q 301.41 501.29 301.02 502.37
  Q 298.39 509.68 295.75 517.12
  Q 295.49 517.86 296.24 518.08
  Q 297.56 518.47 298.64 517.77
  A 0.86 0.84 -15.7 0 0 299.03 517.10
  Q 299.09 515.95 299.73 514.97
  Q 300.03 514.51 300.57 514.43
  Z
  M 351.55 514.55
  Q 353.83 513.96 356.03 514.58
  A 1.13 1.12 -0.4 0 1 356.79 515.32
  L 357.44 517.38
  Q 357.70 518.22 358.57 518.15
  L 360.06 518.03
  Q 361.11 517.95 360.76 516.95
  Q 358.26 509.82 355.42 502.24
  Q 354.82 500.64 353.20 501.25
  A 1.27 1.24 -89.8 0 0 352.45 502.01
  L 346.99 517.23
  A 0.75 0.75 0.0 0 0 347.73 518.24
  L 348.82 518.18
  A 1.51 1.50 -82.4 0 0 350.18 517.13
  L 350.75 515.32
  Q 350.94 514.71 351.55 514.55
  Z
  M 410.67 514.20
  L 414.03 514.38
  Q 414.69 514.42 414.94 515.04
  L 415.87 517.33
  Q 416.17 518.08 416.98 518.05
  L 418.75 517.99
  Q 419.51 517.97 419.25 517.25
  L 413.80 501.96
  A 1.40 1.40 0.0 0 0 411.44 501.50
  Q 410.66 502.37 410.25 503.58
  Q 407.85 510.61 405.47 517.02
  Q 405.10 518.03 406.17 518.09
  L 407.23 518.15
  A 1.35 1.35 0.0 0 0 408.53 517.36
  L 409.69 514.79
  Q 409.97 514.16 410.67 514.20
  Z
  M 227.04 508.00
  Q 226.78 505.19 227.18 502.75
  Q 227.34 501.78 226.37 501.60
  Q 226.36 501.60 224.69 501.29
  Q 223.70 501.11 223.70 502.11
  L 223.58 517.27
  Q 223.57 518.49 224.77 518.26
  L 226.36 517.94
  A 1.05 1.05 0.0 0 0 227.20 516.84
  L 226.95 512.76
  Q 226.76 509.80 228.56 512.16
  Q 230.28 514.40 231.80 516.83
  A 2.53 2.52 74.3 0 0 233.90 518.01
  L 235.50 518.04
  Q 236.84 518.06 236.05 516.98
  L 230.70 509.71
  Q 230.40 509.30 230.69 508.90
  L 235.37 502.44
  Q 236.06 501.49 234.90 501.32
  Q 234.10 501.20 233.28 501.42
  A 3.23 3.20 -80.3 0 0 231.47 502.71
  L 227.72 508.18
  Q 227.13 509.03 227.04 508.00
  Z
  M 254.51 502.25
  A 0.99 0.99 0.0 0 0 253.52 501.26
  L 252.36 501.26
  A 0.99 0.99 0.0 0 0 251.37 502.25
  L 251.37 517.15
  A 0.99 0.99 0.0 0 0 252.36 518.14
  L 253.52 518.14
  A 0.99 0.99 0.0 0 0 254.51 517.15
  L 254.51 502.25
  Z
  M 327.64 515.36
  A 0.62 0.62 0.0 0 1 327.01 514.74
  L 327.07 501.92
  A 0.62 0.62 0.0 0 0 326.43 501.29
  L 324.36 501.34
  A 0.62 0.62 0.0 0 0 323.75 501.96
  L 323.73 517.54
  A 0.62 0.62 0.0 0 0 324.36 518.16
  L 333.81 518.04
  A 0.62 0.62 0.0 0 0 334.42 517.43
  L 334.44 515.92
  A 0.62 0.62 0.0 0 0 333.81 515.29
  L 327.64 515.36
  Z
  M 388.30 507.29
  L 387.89 517.18
  Q 387.85 518.01 388.68 518.05
  L 390.45 518.13
  Q 391.32 518.17 391.32 517.30
  L 391.35 502.22
  Q 391.36 501.69 390.88 501.47
  C 389.80 500.97 388.45 501.19 387.84 502.30
  Q 385.57 506.42 383.58 510.26
  Q 383.21 510.98 382.88 510.24
  Q 380.97 506.00 378.70 502.54
  Q 377.62 500.88 375.55 501.48
  Q 374.99 501.64 375.00 502.21
  L 375.04 517.31
  Q 375.05 518.33 376.07 518.21
  L 377.31 518.06
  Q 378.26 517.94 378.27 516.98
  Q 378.32 512.21 377.89 507.63
  A 0.08 0.08 0.0 0 1 378.03 507.58
  L 382.55 514.86
  A 0.61 0.61 0.0 0 0 383.42 515.04
  Q 384.03 514.62 384.40 513.93
  Q 386.28 510.45 388.04 507.21
  Q 388.32 506.70 388.30 507.29
  Z"
/>
<path fill="#232a30" d="
  M 294.70 345.52
  Q 294.84 307.12 294.69 263.80
  Q 294.67 257.91 295.99 253.99
  C 300.32 241.07 314.85 232.99 328.50 237.39
  C 349.07 244.01 354.40 271.19 335.67 284.10
  C 331.40 287.05 326.94 288.96 321.63 288.80
  Q 318.74 288.71 315.84 288.42
  Q 315.22 288.36 315.22 288.99
  L 315.25 349.79
  A 0.39 0.39 0.0 0 0 315.62 350.18
  Q 326.11 350.78 336.68 348.91
  A 2.31 2.31 0.0 0 1 338.73 349.57
  L 353.75 364.94
  A 0.67 0.67 0.0 0 1 353.48 366.04
  Q 345.08 368.75 336.23 369.92
  C 328.96 370.89 320.90 370.62 313.46 370.41
  C 307.51 370.24 300.96 369.26 295.09 367.73
  Q 258.69 358.24 236.02 329.75
  Q 216.74 305.53 213.37 273.54
  Q 212.84 268.54 213.00 256.49
  Q 213.13 246.86 214.78 239.42
  Q 220.38 214.20 236.39 194.46
  C 256.16 170.08 286.10 154.43 317.74 154.34
  Q 324.21 154.33 331.16 154.69
  Q 338.06 155.05 344.03 156.51
  Q 362.57 161.05 376.08 169.26
  Q 407.94 188.60 421.71 223.08
  Q 427.58 237.77 428.64 253.24
  C 429.27 262.34 429.28 272.51 427.67 281.42
  Q 424.14 301.05 413.59 318.63
  Q 399.84 341.56 375.35 356.24
  Q 374.73 356.62 374.21 356.10
  L 327.69 309.75
  A 0.47 0.47 0.0 0 1 327.94 308.96
  Q 351.89 304.32 362.69 283.42
  C 371.47 266.44 368.41 245.83 356.18 231.68
  C 346.38 220.35 331.24 214.16 316.08 215.95
  Q 302.88 217.50 293.36 224.65
  Q 279.64 234.98 275.63 250.72
  Q 274.10 256.76 274.14 266.10
  Q 274.30 301.32 274.19 336.02
  Q 274.19 336.52 274.60 336.82
  Q 283.30 342.94 294.01 346.04
  Q 294.70 346.24 294.70 345.52
  Z
  M 408.18 252.67
  Q 404.40 223.33 385.19 202.74
  C 372.82 189.49 355.40 179.51 337.09 176.29
  Q 330.02 175.05 323.87 174.60
  Q 315.85 174.00 304.73 176.12
  C 278.69 181.09 256.91 197.11 243.98 220.08
  C 226.67 250.84 230.40 290.72 252.98 317.82
  Q 253.70 318.69 253.71 317.56
  Q 253.76 289.07 253.71 262.22
  C 253.65 224.29 285.65 193.60 323.41 195.09
  C 342.40 195.84 360.81 205.24 372.72 219.65
  C 396.72 248.68 392.42 291.59 362.79 315.13
  A 0.31 0.31 0.0 0 0 362.76 315.58
  L 376.64 329.58
  A 0.79 0.78 46.6 0 0 377.72 329.62
  C 399.62 310.04 411.92 281.75 408.18 252.67
  Z"
/>
<path fill="#f2ae1e" d="
  M 408.18 252.67
  C 411.92 281.75 399.62 310.04 377.72 329.62
  A 0.79 0.78 46.6 0 1 376.64 329.58
  L 362.76 315.58
  A 0.31 0.31 0.0 0 1 362.79 315.13
  C 392.42 291.59 396.72 248.68 372.72 219.65
  C 360.81 205.24 342.40 195.84 323.41 195.09
  C 285.65 193.60 253.65 224.29 253.71 262.22
  Q 253.76 289.07 253.71 317.56
  Q 253.70 318.69 252.98 317.82
  C 230.40 290.72 226.67 250.84 243.98 220.08
  C 256.91 197.11 278.69 181.09 304.73 176.12
  Q 315.85 174.00 323.87 174.60
  Q 330.02 175.05 337.09 176.29
  C 355.40 179.51 372.82 189.49 385.19 202.74
  Q 404.40 223.33 408.18 252.67
  Z"
/>
<path fill="#272a28" d="
  M 213.23 416.43
  L 227.37 416.50
  A 0.74 0.74 0.0 0 1 228.11 417.24
  L 228.13 425.23
  A 0.74 0.74 0.0 0 1 227.39 425.97
  L 213.19 425.98
  A 0.74 0.74 0.0 0 0 212.46 426.72
  L 212.51 434.76
  A 0.74 0.74 0.0 0 0 213.26 435.50
  L 227.98 435.47
  A 0.74 0.74 0.0 0 1 228.73 436.21
  L 228.79 444.26
  A 0.74 0.74 0.0 0 1 228.05 445.01
  L 202.29 445.01
  A 0.74 0.74 0.0 0 1 201.55 444.27
  L 201.56 398.18
  A 0.74 0.74 0.0 0 1 202.30 397.44
  L 228.08 397.46
  A 0.74 0.74 0.0 0 1 228.82 398.22
  L 228.62 406.32
  A 0.74 0.74 0.0 0 1 227.87 407.05
  L 213.29 406.97
  A 0.74 0.74 0.0 0 0 212.55 407.71
  L 212.49 415.69
  A 0.74 0.74 0.0 0 0 213.23 416.43
  Z"
/>
<path fill="#272a28" d="
  M 180.24 425.08
  A 0.55 0.55 0.0 0 0 180.02 425.94
  L 195.11 444.16
  A 0.51 0.51 0.0 0 1 194.72 444.99
  L 182.86 445.02
  A 1.71 1.70 -18.7 0 1 181.51 444.36
  L 168.74 427.81
  Q 167.28 425.92 167.37 428.31
  Q 167.68 435.72 167.53 444.33
  Q 167.51 445.03 166.82 445.03
  L 157.44 444.98
  Q 156.65 444.97 156.65 444.19
  L 156.59 398.21
  A 0.76 0.76 0.0 0 1 157.36 397.45
  Q 164.24 397.52 171.26 397.42
  C 178.40 397.31 185.23 398.92 187.99 405.54
  C 191.16 413.15 188.34 421.81 180.24 425.08
  Z
  M 167.56 406.51
  L 167.52 418.11
  A 0.42 0.42 0.0 0 0 167.94 418.53
  L 170.91 418.54
  A 6.81 5.45 0.2 0 0 177.74 413.12
  L 177.74 411.58
  A 6.81 5.45 0.2 0 0 170.95 406.10
  L 167.98 406.09
  A 0.42 0.42 0.0 0 0 167.56 406.51
  Z"
/>
<path fill="#272a28" d="
  M 249.37 445.04
  L 239.14 444.93
  A 0.33 0.33 0.0 0 1 238.81 444.60
  L 238.81 397.81
  A 0.33 0.33 0.0 0 1 239.14 397.48
  L 249.60 397.51
  A 0.33 0.33 0.0 0 1 249.88 397.66
  L 268.04 426.18
  A 0.33 0.33 0.0 0 0 268.65 426.00
  L 268.59 397.83
  A 0.33 0.33 0.0 0 1 268.92 397.50
  L 279.17 397.54
  A 0.33 0.33 0.0 0 1 279.50 397.87
  L 279.53 444.70
  A 0.33 0.33 0.0 0 1 279.20 445.03
  L 268.81 444.94
  A 0.33 0.33 0.0 0 1 268.53 444.79
  L 250.28 416.39
  A 0.33 0.33 0.0 0 0 249.67 416.57
  L 249.70 444.71
  A 0.33 0.33 0.0 0 1 249.37 445.04
  Z"
/>
<path fill="#272a28" d="
  M 309.00 407.53
  L 309.01 444.39
  A 0.60 0.60 0.0 0 1 308.41 444.99
  L 298.67 444.98
  A 0.60 0.60 0.0 0 1 298.07 444.38
  L 298.04 407.61
  A 0.60 0.60 0.0 0 0 297.45 407.01
  L 287.37 406.93
  A 0.60 0.60 0.0 0 1 286.78 406.33
  L 286.73 398.08
  A 0.60 0.60 0.0 0 1 287.33 397.48
  L 319.68 397.51
  A 0.60 0.60 0.0 0 1 320.27 398.11
  L 320.21 406.41
  A 0.60 0.60 0.0 0 1 319.60 407.01
  L 309.60 406.93
  A 0.60 0.60 0.0 0 0 309.00 407.53
  Z"
/>
<path fill="#272a28" d="
  M 338.81 407.66
  L 338.81 415.89
  A 0.66 0.66 0.0 0 0 339.47 416.55
  L 353.84 416.46
  A 0.66 0.66 0.0 0 1 354.50 417.13
  L 354.37 425.37
  A 0.66 0.66 0.0 0 1 353.70 426.02
  L 339.51 425.89
  A 0.66 0.66 0.0 0 0 338.84 426.55
  L 338.87 434.85
  A 0.66 0.66 0.0 0 0 339.53 435.51
  L 354.49 435.47
  A 0.66 0.66 0.0 0 1 355.15 436.13
  L 355.22 444.32
  A 0.66 0.66 0.0 0 1 354.56 444.98
  L 328.61 445.00
  A 0.66 0.66 0.0 0 1 327.95 444.34
  L 327.95 398.16
  A 0.66 0.66 0.0 0 1 328.61 397.50
  L 354.53 397.47
  A 0.66 0.66 0.0 0 1 355.19 398.13
  L 355.19 406.39
  A 0.66 0.66 0.0 0 1 354.53 407.05
  L 339.47 407.00
  A 0.66 0.66 0.0 0 0 338.81 407.66
  Z"
/>
<path fill="#272a28" d="
  M 375.44 445.00
  L 365.15 444.96
  A 0.34 0.34 0.0 0 1 364.81 444.62
  L 364.80 397.80
  A 0.34 0.34 0.0 0 1 365.14 397.46
  L 375.41 397.48
  A 0.34 0.34 0.0 0 1 375.75 397.82
  L 375.68 415.90
  A 0.34 0.34 0.0 0 0 376.28 416.12
  L 391.95 397.57
  A 0.34 0.34 0.0 0 1 392.21 397.45
  L 404.38 397.52
  A 0.34 0.34 0.0 0 1 404.64 398.08
  L 386.27 419.79
  A 0.34 0.34 0.0 0 0 386.27 420.23
  L 407.61 444.41
  A 0.34 0.34 0.0 0 1 407.36 444.97
  L 393.36 445.00
  A 0.34 0.34 0.0 0 1 393.10 444.88
  L 376.27 425.47
  A 0.34 0.34 0.0 0 0 375.67 425.70
  L 375.78 444.66
  A 0.34 0.34 0.0 0 1 375.44 445.00
  Z"
/>
<path fill="#272a28" d="
  M 424.77 426.63
  L 424.93 434.84
  A 0.65 0.65 0.0 0 0 425.57 435.47
  L 440.45 435.56
  A 0.65 0.65 0.0 0 1 441.09 436.20
  L 441.14 444.30
  A 0.65 0.65 0.0 0 1 440.49 444.95
  L 414.51 445.02
  A 0.65 0.65 0.0 0 1 413.86 444.37
  L 413.82 398.12
  A 0.65 0.65 0.0 0 1 414.47 397.47
  L 440.45 397.47
  A 0.65 0.65 0.0 0 1 441.10 398.12
  L 441.08 406.39
  A 0.65 0.65 0.0 0 1 440.43 407.04
  L 425.47 406.96
  A 0.65 0.65 0.0 0 0 424.82 407.61
  L 424.82 415.82
  A 0.65 0.65 0.0 0 0 425.47 416.47
  L 439.71 416.51
  A 0.65 0.65 0.0 0 1 440.36 417.16
  L 440.40 425.34
  A 0.65 0.65 0.0 0 1 439.75 425.99
  L 425.42 425.97
  A 0.65 0.65 0.0 0 0 424.77 426.63
  Z"
/>
<path fill="#272a28" d="
  M 461.66 427.75
  L 461.74 444.38
  Q 461.74 445.00 461.12 445.00
  L 451.38 444.97
  A 0.60 0.59 0.0 0 1 450.78 444.38
  L 450.77 397.79
  A 0.32 0.31 -89.1 0 1 451.09 397.47
  Q 457.26 397.55 463.32 397.42
  Q 470.91 397.27 474.60 398.62
  Q 482.72 401.60 483.29 410.71
  C 483.71 417.33 480.50 422.59 474.41 425.12
  A 0.58 0.57 -31.0 0 0 474.18 426.02
  L 489.31 444.22
  A 0.46 0.46 0.0 0 1 488.96 444.97
  L 477.69 445.01
  Q 476.16 445.01 475.24 443.81
  L 462.61 427.43
  Q 461.65 426.19 461.66 427.75
  Z
  M 461.73 406.71
  L 461.73 417.95
  A 0.60 0.60 0.0 0 0 462.33 418.55
  L 465.40 418.55
  A 6.47 5.71 0.0 0 0 471.87 412.84
  L 471.87 411.82
  A 6.47 5.71 -0.0 0 0 465.40 406.11
  L 462.33 406.11
  A 0.60 0.60 0.0 0 0 461.73 406.71
  Z"
/>
<path fill="#f2ae1e" d="
  M 167.56 406.51
  A 0.42 0.42 0.0 0 1 167.98 406.09
  L 170.95 406.10
  A 6.81 5.45 0.2 0 1 177.74 411.58
  L 177.74 413.12
  A 6.81 5.45 0.2 0 1 170.91 418.54
  L 167.94 418.53
  A 0.42 0.42 0.0 0 1 167.52 418.11
  L 167.56 406.51
  Z"
/>
<path fill="#f2ae1e" d="
  M 461.73 406.71
  A 0.60 0.60 0.0 0 1 462.33 406.11
  L 465.40 406.11
  A 6.47 5.71 0.0 0 1 471.87 411.82
  L 471.87 412.84
  A 6.47 5.71 0.0 0 1 465.40 418.55
  L 462.33 418.55
  A 0.60 0.60 0.0 0 1 461.73 417.95
  L 461.73 406.71
  Z"
/>
<ellipse fill="#272a28" cx="0.00" cy="0.00" transform="translate(281.45,465.58) rotate(3.2)" rx="2.07" ry="1.43"/>
<ellipse fill="#272a28" cx="0.00" cy="0.00" transform="translate(397.02,465.61) rotate(-2.2)" rx="1.94" ry="1.49"/>
<rect fill="#272a28" x="-1.55" y="-8.56" transform="translate(396.96,476.18) rotate(0.1)" width="3.10" height="17.12" rx="0.91"/>
<path fill="#272a28" d="
  M 206.63 474.30
  L 208.84 469.34
  Q 209.47 467.93 211.01 467.88
  L 211.79 467.86
  Q 213.35 467.81 212.55 469.15
  C 210.03 473.41 206.77 478.29 207.67 483.48
  Q 207.86 484.62 206.71 484.73
  L 205.27 484.86
  Q 204.16 484.96 204.25 483.85
  Q 204.60 479.66 203.93 478.18
  Q 201.98 473.91 199.38 469.10
  Q 198.76 467.94 200.08 467.95
  L 201.41 467.96
  Q 202.75 467.97 203.29 469.20
  L 205.56 474.30
  Q 206.09 475.50 206.63 474.30
  Z"
/>
<path fill="#272a28" d="
  M 254.48 474.52
  L 254.75 483.56
  A 1.09 1.09 0.0 0 1 253.82 484.66
  L 252.66 484.83
  Q 251.60 484.99 251.60 483.91
  L 251.61 468.61
  Q 251.61 468.15 252.04 468.00
  Q 253.58 467.43 254.59 468.78
  Q 258.10 473.53 261.06 478.07
  Q 261.40 478.59 261.39 477.96
  L 261.23 469.06
  Q 261.22 468.09 262.19 468.03
  L 263.67 467.94
  Q 264.45 467.89 264.45 468.67
  L 264.48 482.23
  Q 264.49 487.62 261.09 483.43
  Q 257.58 479.08 254.88 474.40
  Q 254.46 473.66 254.48 474.52
  Z"
/>
<path fill="#272a28" d="
  M 326.93 478.23
  L 326.62 469.17
  Q 326.58 468.04 327.70 468.00
  L 328.78 467.97
  Q 329.87 467.93 329.88 469.03
  L 329.92 484.42
  A 0.69 0.69 0.0 0 1 329.16 485.11
  Q 327.41 484.95 326.34 483.46
  Q 323.13 478.98 320.40 474.67
  Q 319.95 473.95 319.98 474.80
  L 320.28 483.71
  Q 320.30 484.43 319.60 484.61
  Q 318.79 484.82 317.93 484.77
  Q 317.02 484.71 317.02 483.80
  L 317.04 468.83
  A 1.10 1.10 0.0 0 1 318.44 467.77
  Q 319.58 468.10 320.46 469.31
  Q 323.75 473.83 326.61 478.33
  Q 326.95 478.87 326.93 478.23
  Z"
/>
<path fill="#272a28" d="
  M 348.92 474.73
  L 354.03 474.77
  A 0.61 0.61 0.0 0 1 354.63 475.42
  L 354.54 477.10
  A 0.61 0.61 0.0 0 1 353.95 477.68
  L 348.98 477.86
  A 0.61 0.61 0.0 0 0 348.39 478.44
  L 348.27 481.27
  A 0.61 0.61 0.0 0 0 348.89 481.91
  L 354.53 481.83
  A 0.61 0.61 0.0 0 1 355.13 482.33
  L 355.44 483.94
  A 0.61 0.61 0.0 0 1 354.85 484.66
  L 345.88 484.78
  A 0.61 0.61 0.0 0 1 345.26 484.17
  L 345.27 468.54
  A 0.61 0.61 0.0 0 1 345.89 467.93
  L 354.50 468.05
  A 0.61 0.61 0.0 0 1 355.10 468.65
  L 355.13 470.14
  A 0.61 0.61 0.0 0 1 354.55 470.76
  L 349.00 471.00
  A 0.61 0.61 0.0 0 0 348.42 471.59
  L 348.32 474.09
  A 0.61 0.61 0.0 0 0 348.92 474.73
  Z"
/>
<path fill="#272a28" d="
  M 376.52 479.03
  C 374.20 477.50 370.43 476.57 369.79 473.52
  C 368.50 467.43 375.31 467.34 378.99 468.24
  Q 379.99 468.49 379.81 469.50
  L 379.74 469.90
  Q 379.51 471.19 378.24 470.90
  C 376.81 470.58 374.03 469.98 372.85 471.32
  A 1.32 1.32 0.0 0 0 373.13 473.31
  C 376.18 475.25 382.09 476.85 380.03 481.96
  C 378.64 485.41 373.54 485.45 370.66 484.63
  A 1.37 1.36 11.2 0 1 369.68 483.18
  L 369.75 482.47
  Q 369.88 481.23 371.00 481.77
  Q 373.75 483.08 376.33 481.85
  A 1.63 1.62 49.0 0 0 376.52 479.03
  Z"
/>
<path fill="#272a28" d="
  M 229.87 478.35
  L 229.80 481.25
  A 0.58 0.58 0.0 0 0 230.37 481.84
  L 236.09 481.96
  A 0.58 0.58 0.0 0 1 236.66 482.54
  L 236.65 484.08
  A 0.58 0.58 0.0 0 1 236.08 484.65
  L 227.10 484.70
  A 0.58 0.58 0.0 0 1 226.52 484.12
  L 226.53 468.53
  A 0.58 0.58 0.0 0 1 227.12 467.95
  L 235.94 468.04
  A 0.58 0.58 0.0 0 1 236.51 468.64
  L 236.46 470.31
  A 0.58 0.58 0.0 0 1 235.88 470.87
  L 230.40 470.86
  A 0.58 0.58 0.0 0 0 229.82 471.43
  L 229.78 474.10
  A 0.58 0.58 0.0 0 0 230.34 474.69
  L 235.40 474.85
  A 0.58 0.58 0.0 0 1 235.97 475.44
  L 235.95 477.18
  A 0.58 0.58 0.0 0 1 235.38 477.75
  L 230.44 477.79
  A 0.58 0.58 0.0 0 0 229.87 478.35
  Z"
/>
<rect fill="#272a28" x="-1.72" y="-8.36" transform="translate(281.50,476.38) rotate(-0.1)" width="3.44" height="16.72" rx="0.86"/>
<path fill="#272a28" d="
  M 418.07 481.99
  L 424.18 481.94
  A 0.59 0.59 0.0 0 1 424.77 482.52
  L 424.81 483.94
  A 0.59 0.59 0.0 0 1 424.23 484.54
  L 414.74 484.71
  A 0.59 0.59 0.0 0 1 414.14 484.11
  L 414.49 468.60
  A 0.59 0.59 0.0 0 1 415.08 468.02
  L 416.60 468.04
  A 0.59 0.59 0.0 0 1 417.18 468.61
  L 417.48 481.41
  A 0.59 0.59 0.0 0 0 418.07 481.99
  Z"
/>
<ellipse fill="#272a28" cx="0.00" cy="0.00" transform="translate(252.95,498.95) rotate(3.4)" rx="2.01" ry="1.40"/>
<path fill="#272a28" d="
  M 278.72 511.71
  L 282.01 516.70
  Q 282.88 518.03 281.29 518.03
  L 280.04 518.03
  Q 278.70 518.03 278.10 516.82
  Q 277.20 514.99 276.20 513.32
  Q 273.47 508.75 273.48 514.08
  L 273.49 516.98
  Q 273.49 517.95 272.52 518.03
  L 271.31 518.14
  Q 270.12 518.24 270.13 517.06
  L 270.21 502.25
  A 0.75 0.75 0.0 0 1 270.78 501.52
  C 275.00 500.48 282.55 500.79 281.05 507.37
  C 280.72 508.79 279.79 509.74 278.81 510.74
  Q 278.37 511.19 278.72 511.71
  Z
  M 273.54 504.73
  L 273.50 508.27
  A 0.76 0.76 0.0 0 0 274.25 509.04
  L 274.80 509.05
  A 2.91 2.35 0.7 0 0 277.74 506.74
  L 277.74 506.38
  A 2.91 2.35 0.7 0 0 274.86 503.99
  L 274.31 503.98
  A 0.76 0.76 0.0 0 0 273.54 504.73
  Z"
/>
<path fill="#272a28" d="
  M 299.73 514.97
  Q 299.09 515.95 299.03 517.10
  A 0.86 0.84 -15.7 0 1 298.64 517.77
  Q 297.56 518.47 296.24 518.08
  Q 295.49 517.86 295.75 517.12
  Q 298.39 509.68 301.02 502.37
  Q 301.41 501.29 302.49 501.09
  Q 303.70 500.87 304.11 502.02
  L 309.47 516.94
  Q 309.81 517.89 308.82 518.02
  L 307.53 518.18
  A 1.39 1.38 -13.4 0 1 306.04 517.27
  L 305.36 515.30
  A 1.16 1.15 85.8 0 0 304.50 514.55
  Q 302.55 514.13 300.57 514.43
  Q 300.03 514.51 299.73 514.97
  Z
  M 304.17 511.10
  L 302.59 506.83
  Q 302.35 506.19 302.17 506.85
  L 300.98 511.17
  Q 300.83 511.72 301.40 511.74
  L 303.65 511.82
  Q 304.44 511.84 304.17 511.10
  Z"
/>
<path fill="#272a28" d="
  M 350.75 515.32
  L 350.18 517.13
  A 1.51 1.50 -82.4 0 1 348.82 518.18
  L 347.73 518.24
  A 0.75 0.75 0.0 0 1 346.99 517.23
  L 352.45 502.01
  A 1.27 1.24 -89.8 0 1 353.20 501.25
  Q 354.82 500.64 355.42 502.24
  Q 358.26 509.82 360.76 516.95
  Q 361.11 517.95 360.06 518.03
  L 358.57 518.15
  Q 357.70 518.22 357.44 517.38
  L 356.79 515.32
  A 1.13 1.12 -0.4 0 0 356.03 514.58
  Q 353.83 513.96 351.55 514.55
  Q 350.94 514.71 350.75 515.32
  Z
  M 355.26 511.82
  A 0.34 0.34 0.0 0 0 355.58 511.36
  L 353.92 506.70
  A 0.34 0.34 0.0 0 0 353.26 506.75
  L 352.29 511.35
  A 0.34 0.34 0.0 0 0 352.62 511.76
  L 355.26 511.82
  Z"
/>
<path fill="#272a28" d="
  M 409.69 514.79
  L 408.53 517.36
  A 1.35 1.35 0.0 0 1 407.23 518.15
  L 406.17 518.09
  Q 405.10 518.03 405.47 517.02
  Q 407.85 510.61 410.25 503.58
  Q 410.66 502.37 411.44 501.50
  A 1.40 1.40 0.0 0 1 413.80 501.96
  L 419.25 517.25
  Q 419.51 517.97 418.75 517.99
  L 416.98 518.05
  Q 416.17 518.08 415.87 517.33
  L 414.94 515.04
  Q 414.69 514.42 414.03 514.38
  L 410.67 514.20
  Q 409.97 514.16 409.69 514.79
  Z
  M 412.17 506.97
  L 410.72 510.62
  Q 410.38 511.46 411.25 511.74
  Q 412.47 512.12 413.49 511.61
  Q 413.76 511.48 413.66 511.19
  Q 412.94 509.29 412.69 507.04
  Q 412.57 505.96 412.17 506.97
  Z"
/>
<path fill="#272a28" d="
  M 227.72 508.18
  L 231.47 502.71
  A 3.23 3.20 -80.3 0 1 233.28 501.42
  Q 234.10 501.20 234.90 501.32
  Q 236.06 501.49 235.37 502.44
  L 230.69 508.90
  Q 230.40 509.30 230.70 509.71
  L 236.05 516.98
  Q 236.84 518.06 235.50 518.04
  L 233.90 518.01
  A 2.53 2.52 74.3 0 1 231.80 516.83
  Q 230.28 514.40 228.56 512.16
  Q 226.76 509.80 226.95 512.76
  L 227.20 516.84
  A 1.05 1.05 0.0 0 1 226.36 517.94
  L 224.77 518.26
  Q 223.57 518.49 223.58 517.27
  L 223.70 502.11
  Q 223.70 501.11 224.69 501.29
  Q 226.36 501.60 226.37 501.60
  Q 227.34 501.78 227.18 502.75
  Q 226.78 505.19 227.04 508.00
  Q 227.13 509.03 227.72 508.18
  Z"
/>
<rect fill="#272a28" x="251.37" y="501.26" width="3.14" height="16.88" rx="0.99"/>
<path fill="#272a28" d="
  M 327.64 515.36
  L 333.81 515.29
  A 0.62 0.62 0.0 0 1 334.44 515.92
  L 334.42 517.43
  A 0.62 0.62 0.0 0 1 333.81 518.04
  L 324.36 518.16
  A 0.62 0.62 0.0 0 1 323.73 517.54
  L 323.75 501.96
  A 0.62 0.62 0.0 0 1 324.36 501.34
  L 326.43 501.29
  A 0.62 0.62 0.0 0 1 327.07 501.92
  L 327.01 514.74
  A 0.62 0.62 0.0 0 0 327.64 515.36
  Z"
/>
<path fill="#272a28" d="
  M 388.04 507.21
  Q 386.28 510.45 384.40 513.93
  Q 384.03 514.62 383.42 515.04
  A 0.61 0.61 0.0 0 1 382.55 514.86
  L 378.03 507.58
  A 0.08 0.08 0.0 0 0 377.89 507.63
  Q 378.32 512.21 378.27 516.98
  Q 378.26 517.94 377.31 518.06
  L 376.07 518.21
  Q 375.05 518.33 375.04 517.31
  L 375.00 502.21
  Q 374.99 501.64 375.55 501.48
  Q 377.62 500.88 378.70 502.54
  Q 380.97 506.00 382.88 510.24
  Q 383.21 510.98 383.58 510.26
  Q 385.57 506.42 387.84 502.30
  C 388.45 501.19 389.80 500.97 390.88 501.47
  Q 391.36 501.69 391.35 502.22
  L 391.32 517.30
  Q 391.32 518.17 390.45 518.13
  L 388.68 518.05
  Q 387.85 518.01 387.89 517.18
  L 388.30 507.29
  Q 388.32 506.70 388.04 507.21
  Z"
/>
<path fill="#f2ae1e" d="
  M 273.54 504.73
  A 0.76 0.76 0.0 0 1 274.31 503.98
  L 274.86 503.99
  A 2.91 2.35 0.7 0 1 277.74 506.38
  L 277.74 506.74
  A 2.91 2.35 0.7 0 1 274.80 509.05
  L 274.25 509.04
  A 0.76 0.76 0.0 0 1 273.50 508.27
  L 273.54 504.73
  Z"
/>
<path fill="#f2ae1e" d="
  M 302.59 506.83
  L 304.17 511.10
  Q 304.44 511.84 303.65 511.82
  L 301.40 511.74
  Q 300.83 511.72 300.98 511.17
  L 302.17 506.85
  Q 302.35 506.19 302.59 506.83
  Z"
/>
<path fill="#f2ae1e" d="
  M 355.26 511.82
  L 352.62 511.76
  A 0.34 0.34 0.0 0 1 352.29 511.35
  L 353.26 506.75
  A 0.34 0.34 0.0 0 1 353.92 506.70
  L 355.58 511.36
  A 0.34 0.34 0.0 0 1 355.26 511.82
  Z"
/>
<path fill="#f2ae1e" d="
  M 410.72 510.62
  L 412.17 506.97
  Q 412.57 505.96 412.69 507.04
  Q 412.94 509.29 413.66 511.19
  Q 413.76 511.48 413.49 511.61
  Q 412.47 512.12 411.25 511.74
  Q 410.38 511.46 410.72 510.62
  Z"
/>
</svg>
